<svg width="50" height="50" viewBox="0 0 50 50" fill="none" xmlns="http://www.w3.org/2000/svg">
<g clip-path="url(#clip0_40_1726)">
<path d="M0.820251 24.9889H0.849417C1.29878 24.9892 1.66742 24.6331 1.68273 24.1839C2.13355 11.3055 12.939 1.23091 25.8175 1.68163C30.7711 1.85506 35.5408 3.60138 39.4352 6.66766H35.0003C34.5401 6.66766 34.167 7.04078 34.167 7.50098C34.167 7.96117 34.5401 8.33429 35.0003 8.33429H41.6668H41.6785C41.7437 8.32898 41.808 8.31617 41.8702 8.29596C41.9128 8.28981 41.9547 8.28065 41.996 8.26846C42.0193 8.25846 42.0368 8.23763 42.0593 8.22513C42.1341 8.18857 42.2028 8.14044 42.2626 8.08263L42.271 8.0768C42.2921 8.04784 42.3114 8.01753 42.3285 7.98597C42.3721 7.93284 42.4089 7.8743 42.4376 7.8118C42.4606 7.74535 42.4746 7.67618 42.4793 7.60597C42.4889 7.5716 42.4959 7.5365 42.5001 7.50098V0.834463C42.5001 0.374265 42.127 0.00114883 41.6668 0.00114883C41.2066 0.00114883 40.8335 0.374265 40.8335 0.834463V5.66102C30.1566 -3.08691 14.4094 -1.52319 5.6615 9.15386C2.18939 13.3917 0.20589 18.6529 0.0161024 24.1281C0.000686036 24.5878 0.360574 24.9731 0.820251 24.9889Z" fill="#00AE9A"/>
<path d="M7.56695 40.5077C7.26112 40.1625 6.73342 40.1307 6.38822 40.4365C6.04302 40.7423 6.01115 41.27 6.31697 41.6152C6.89061 42.2589 7.49663 42.8731 8.13277 43.4551C8.4787 43.7588 9.00514 43.7244 9.30878 43.3786C9.60377 43.0425 9.58086 42.5335 9.25691 42.2252C8.66463 41.682 8.10058 41.1088 7.56695 40.5077Z" fill="#00AE9A"/>
<path d="M17.5116 47.1059C16.7497 46.848 16.0018 46.5506 15.2708 46.2151C14.8584 46.0109 14.3584 46.1796 14.1541 46.592C13.9499 47.0044 14.1186 47.5043 14.531 47.7086C14.5452 47.7156 14.5595 47.7223 14.5741 47.7284C15.3579 48.0892 16.1601 48.4085 16.9774 48.685C17.4134 48.8325 17.8866 48.5986 18.0341 48.1626C18.1817 47.7265 17.9477 47.2534 17.5116 47.1059Z" fill="#00AE9A"/>
<path d="M13.1341 45.0951V45.0943C12.4415 44.684 11.7702 44.239 11.1225 43.761C10.7611 43.4759 10.2372 43.5378 9.95208 43.8991C9.66699 44.2605 9.72886 44.7844 10.0902 45.0695C10.1037 45.0801 10.1175 45.0904 10.1317 45.1002C10.8244 45.613 11.5428 46.09 12.2841 46.5294C12.6802 46.764 13.1915 46.6333 13.4262 46.2373C13.661 45.8411 13.5301 45.3298 13.1341 45.0951Z" fill="#00AE9A"/>
<path d="M6.05741 38.627C5.58763 37.9738 5.1516 37.2971 4.75078 36.5995C4.52068 36.2002 4.01048 36.0632 3.61122 36.2933C3.21196 36.5234 3.07488 37.0336 3.30497 37.4328C3.73434 38.1787 4.20162 38.9022 4.70494 39.6003C4.98129 39.9683 5.50368 40.0425 5.87169 39.7662C6.22918 39.4978 6.31116 38.9951 6.05741 38.627Z" fill="#00AE9A"/>
<path d="M3.73323 34.7927C3.73323 34.6765 3.70885 34.5616 3.66188 34.4555L3.66021 34.4496C3.33407 33.7151 3.04616 32.9641 2.79773 32.1997C2.6769 31.7556 2.21889 31.4936 1.77483 31.6145C1.33078 31.7353 1.0687 32.1933 1.18964 32.6374C1.19672 32.6632 1.20495 32.6887 1.21443 32.7139C1.48036 33.5348 1.78858 34.3414 2.13774 35.1305C2.27139 35.4321 2.57034 35.6265 2.90023 35.6263C3.36042 35.6261 3.73333 35.2529 3.73323 34.7927Z" fill="#00AE9A"/>
<path d="M1.53334 30.8555C1.53344 30.8555 1.53365 30.8554 1.53376 30.8554C1.98343 30.7596 2.27051 30.3177 2.17541 29.868C2.00937 29.0808 1.88364 28.2856 1.79875 27.4855C1.75021 27.0276 1.3396 26.6957 0.881689 26.7443C0.423783 26.7928 0.0919153 27.2034 0.140456 27.6613C0.231704 28.5183 0.366805 29.37 0.545447 30.213C0.640861 30.6633 1.08314 30.9509 1.53334 30.8555Z" fill="#00AE9A"/>
<path d="M48.6675 30.0048C48.6672 30.0047 48.6669 30.0047 48.6666 30.0046C48.2199 29.894 47.7681 30.1663 47.6574 30.6129C47.4643 31.3942 47.231 32.1649 46.9583 32.922C46.8022 33.3551 47.0268 33.8326 47.4599 33.9887C47.893 34.1447 48.3705 33.9201 48.5266 33.487C48.8189 32.6761 49.0692 31.8505 49.2765 31.0138C49.3869 30.567 49.1142 30.1153 48.6675 30.0048Z" fill="#00AE9A"/>
<path d="M22.2099 48.1667C21.4111 48.0716 20.6179 47.9353 19.8332 47.7584C19.3843 47.6569 18.9381 47.9386 18.8366 48.3875C18.7351 48.8365 19.0168 49.2827 19.4658 49.3842C20.3068 49.5737 21.1571 49.7198 22.0132 49.8217C22.0464 49.8257 22.0798 49.8276 22.1132 49.8275C22.5734 49.8265 22.9457 49.4526 22.9447 48.9924C22.9439 48.5709 22.6285 48.2165 22.2099 48.1667Z" fill="#00AE9A"/>
<path d="M47.1311 34.7578C46.7168 34.5578 46.2189 34.7313 46.0185 35.1453C45.6682 35.8697 45.2805 36.5754 44.8568 37.2594C44.6212 37.6549 44.7508 38.1663 45.1462 38.4018C45.5319 38.6317 46.0306 38.5145 46.2735 38.1369C46.727 37.4037 47.1423 36.6474 47.5176 35.8711C47.7183 35.457 47.5452 34.9586 47.1311 34.7578Z" fill="#00AE9A"/>
<path d="M44.6691 39.0918C44.3089 38.8053 43.7846 38.8651 43.4981 39.2254C43.4931 39.2317 43.4883 39.238 43.4835 39.2444V39.2427C42.9918 39.8805 42.4676 40.4923 41.9127 41.076C41.5954 41.4096 41.6086 41.9374 41.9423 42.2547C42.2759 42.572 42.8037 42.5588 43.121 42.2251C43.7143 41.5998 44.2756 40.9448 44.8026 40.2627C45.089 39.9025 45.0293 39.3782 44.6691 39.0918Z" fill="#00AE9A"/>
<path d="M49.1806 25.0397C48.7279 25.0166 48.3421 25.3649 48.3191 25.8176C48.3187 25.8261 48.3184 25.8346 48.3182 25.843C48.2899 26.6472 48.22 27.4493 48.109 28.2463C48.0462 28.7016 48.3639 29.1217 48.819 29.1855C48.8576 29.1911 48.8966 29.1939 48.9356 29.1938C49.3509 29.1932 49.7025 28.8868 49.7598 28.4755C49.8784 27.6218 49.9532 26.7627 49.9839 25.9014C49.9999 25.4417 49.6404 25.056 49.1806 25.0397Z" fill="#00AE9A"/>
<path d="M40.1671 42.7335V42.736C39.5538 43.2595 38.9141 43.7513 38.2505 44.2093C37.871 44.4716 37.7761 44.9919 38.0384 45.3714C38.3007 45.7508 38.821 45.8457 39.2005 45.5834C39.9101 45.0906 40.5943 44.5622 41.2504 44.0001C41.6002 43.701 41.6412 43.175 41.3421 42.8252C41.043 42.4754 40.5169 42.4343 40.1671 42.7335Z" fill="#00AE9A"/>
<path d="M31.7594 47.3401C30.9893 47.5721 30.2078 47.764 29.4178 47.9151C28.9658 48.002 28.6699 48.4388 28.7569 48.8908C28.8322 49.2825 29.1747 49.5659 29.5736 49.5667C29.6264 49.5669 29.6791 49.5621 29.7311 49.5525C30.578 49.3906 31.4158 49.1846 32.2411 48.935C32.6782 48.791 32.9157 48.3198 32.7717 47.8828C32.6327 47.4611 32.1875 47.2225 31.7594 47.3401Z" fill="#00AE9A"/>
<path d="M27.0713 48.2429C27.056 48.2437 27.0408 48.2451 27.0256 48.2467L27.0297 48.2501C26.3631 48.3067 25.6806 48.3334 25.0006 48.3334H24.6198C24.1653 48.3398 23.7939 48.6978 23.7706 49.1517C23.7623 49.6119 24.1286 49.9917 24.5887 50C24.5888 50 24.5889 50 24.589 50H25.0006C25.7289 50 26.4589 49.9675 27.1672 49.9067C27.6267 49.8802 27.9778 49.4863 27.9512 49.0268C27.9246 48.5673 27.5307 48.2163 27.0713 48.2429Z" fill="#00AE9A"/>
<path d="M36.1994 45.4743H36.2003C35.4948 45.8606 34.77 46.2105 34.0286 46.5226C33.6022 46.6956 33.3967 47.1816 33.5696 47.608C33.7425 48.0344 34.2285 48.24 34.655 48.067C34.6612 48.0645 34.6674 48.0619 34.6735 48.0592C35.4679 47.725 36.2444 47.3501 37.0001 46.9359C37.4038 46.7148 37.5517 46.2083 37.3306 45.8047C37.1096 45.4011 36.6031 45.2532 36.1994 45.4743Z" fill="#00AE9A"/>
<path d="M25.0006 7.50098C15.3358 7.50098 7.50098 15.3358 7.50098 25.0006C7.50098 34.6654 15.3358 42.5002 25.0006 42.5002C34.6654 42.5002 42.5002 34.6654 42.5002 25.0006C42.4892 15.3404 34.6608 7.51202 25.0006 7.50098ZM38.3336 25.8339H40.791C40.3581 33.9084 33.9084 40.3581 25.8339 40.791V38.3336C25.8339 37.8734 25.4608 37.5003 25.0006 37.5003C24.5404 37.5003 24.1673 37.8734 24.1673 38.3336V40.791C16.0928 40.3581 9.64301 33.9084 9.2101 25.8339H11.6675C12.1277 25.8339 12.5009 25.4608 12.5009 25.0006C12.5009 24.5404 12.1277 24.1673 11.6675 24.1673H9.2101C9.64301 16.0928 16.0928 9.64301 24.1673 9.2101V11.6675C24.1673 12.1277 24.5404 12.5009 25.0006 12.5009C25.4608 12.5009 25.8339 12.1277 25.8339 11.6675V9.2101C33.9084 9.64301 40.3581 16.0928 40.791 24.1673H38.3336C37.8734 24.1673 37.5003 24.5404 37.5003 25.0006C37.5003 25.4608 37.8734 25.8339 38.3336 25.8339Z" fill="#00AE9A"/>
<path d="M25.8336 22.654V15.0008C25.8336 14.5406 25.4605 14.1675 25.0003 14.1675C24.5401 14.1675 24.167 14.5406 24.167 15.0008V22.654C23.4613 22.9061 22.9058 23.4616 22.6537 24.1673H18.3338C17.8736 24.1673 17.5005 24.5404 17.5005 25.0006C17.5005 25.4608 17.8736 25.8339 18.3338 25.8339H22.6537C23.1104 27.1335 24.5341 27.8168 25.8336 27.3601C27.1332 26.9035 27.8165 25.4797 27.3598 24.1802C27.109 23.4662 26.5476 22.9049 25.8336 22.654ZM25.0003 25.8339C24.5401 25.8339 24.167 25.4608 24.167 25.0006C24.167 24.5404 24.5401 24.1673 25.0003 24.1673C25.4605 24.1673 25.8336 24.5404 25.8336 25.0006C25.8336 25.4608 25.4606 25.8339 25.0003 25.8339Z" fill="#00AE9A"/>
</g>
<defs>
<clipPath id="clip0_40_1726">
<rect width="50" height="50" fill="white"/>
</clipPath>
</defs>
</svg>
