<svg width="48" height="48" viewBox="0 0 48 48" fill="none" xmlns="http://www.w3.org/2000/svg">
<path d="M38.9424 45.875H37.2812V47.4375H39.6018C39.7862 47.4375 39.9647 47.3722 40.1056 47.2533C40.2466 47.1343 40.3409 46.9693 40.3719 46.7875L46.2285 12.4125L44.6882 12.15L38.9424 45.875Z" fill="#00AE9A"/>
<path d="M46.7918 4.48067L37.4168 2.82755L37.1455 4.36631L45.7556 5.88477L44.9543 10.5878L46.4945 10.8503L47.4263 5.38155C47.461 5.17802 47.4138 4.96901 47.2949 4.80021C47.176 4.6314 46.9951 4.51652 46.7918 4.48067Z" fill="#00AE9A"/>
<path d="M34.9375 0.5625H1.34375C1.13655 0.5625 0.937836 0.64481 0.791323 0.791323C0.64481 0.937836 0.5625 1.13655 0.5625 1.34375V33.375H2.125V2.125H34.1562V45.875H2.125V34.9375H0.5625V46.6562C0.5625 46.8634 0.64481 47.0622 0.791323 47.2087C0.937836 47.3552 1.13655 47.4375 1.34375 47.4375H34.9375C35.1447 47.4375 35.3434 47.3552 35.4899 47.2087C35.6364 47.0622 35.7188 46.8634 35.7188 46.6562V1.34375C35.7188 1.13655 35.6364 0.937836 35.4899 0.791323C35.3434 0.64481 35.1447 0.5625 34.9375 0.5625Z" fill="#00AE9A"/>
<path d="M8.14639 26.5726L7.0415 27.6775L9.38525 30.0212C9.4578 30.0937 9.54393 30.1513 9.63872 30.1906C9.73351 30.2298 9.8351 30.25 9.9377 30.25C9.94746 30.25 9.95723 30.25 9.96768 30.2494C10.0752 30.2453 10.1808 30.219 10.2777 30.1722C10.3746 30.1253 10.4608 30.059 10.5309 29.9773L15.2184 24.5085L14.032 23.4915L9.89355 28.3197L8.14639 26.5726Z" fill="#00AE9A"/>
<path d="M4.46875 29.8594C4.46958 30.5843 4.75793 31.2793 5.27054 31.792C5.78316 32.3046 6.47818 32.5929 7.20312 32.5938H11.1094C11.8343 32.5929 12.5293 32.3046 13.042 31.792C13.5546 31.2793 13.8429 30.5843 13.8438 29.8594V29.4688H12.2812V29.8594C12.2809 30.1701 12.1573 30.4679 11.9376 30.6876C11.7179 30.9073 11.4201 31.0309 11.1094 31.0312H7.20312C6.89243 31.0309 6.59455 30.9073 6.37486 30.6876C6.15516 30.4679 6.03159 30.1701 6.03125 29.8594V25.9531C6.03159 25.6424 6.15516 25.3446 6.37486 25.1249C6.59455 24.9052 6.89243 24.7816 7.20312 24.7812H10.7188V23.2188H7.20312C6.47818 23.2196 5.78316 23.5079 5.27054 24.0205C4.75793 24.5332 4.46958 25.2282 4.46875 25.9531V29.8594Z" fill="#00AE9A"/>
<path d="M8.14639 38.2913L7.0415 39.3962L9.38525 41.74C9.4578 41.8125 9.54393 41.87 9.63872 41.9093C9.73351 41.9486 9.8351 41.9688 9.9377 41.9688C9.94746 41.9688 9.95723 41.9688 9.96768 41.9682C10.0752 41.9641 10.1808 41.9377 10.2777 41.8909C10.3746 41.8441 10.4608 41.7777 10.5309 41.696L15.2184 36.2273L14.032 35.2103L9.89355 40.0385L8.14639 38.2913Z" fill="#00AE9A"/>
<path d="M4.46875 41.5781C4.46958 42.3031 4.75793 42.9981 5.27054 43.5107C5.78316 44.0233 6.47818 44.3117 7.20312 44.3125H11.1094C11.8343 44.3117 12.5293 44.0233 13.042 43.5107C13.5546 42.9981 13.8429 42.3031 13.8438 41.5781V41.1875H12.2812V41.5781C12.2809 41.8888 12.1573 42.1867 11.9376 42.4064C11.7179 42.6261 11.4201 42.7497 11.1094 42.75H7.20312C6.89243 42.7497 6.59455 42.6261 6.37486 42.4064C6.15516 42.1867 6.03159 41.8888 6.03125 41.5781V37.6719C6.03159 37.3612 6.15516 37.0633 6.37486 36.8436C6.59455 36.6239 6.89243 36.5003 7.20312 36.5H10.7188V34.9375H7.20312C6.47818 34.9383 5.78316 35.2267 5.27054 35.7393C4.75793 36.2519 4.46958 36.9469 4.46875 37.6719V41.5781Z" fill="#00AE9A"/>
<path d="M16.9688 34.9375H28.6875V36.5H16.9688V34.9375Z" fill="#00AE9A"/>
<path d="M16.9688 38.8438H20.875V40.4062H16.9688V38.8438Z" fill="#00AE9A"/>
<path d="M22.4375 38.8438H28.6875V40.4062H22.4375V38.8438Z" fill="#00AE9A"/>
<path d="M16.9688 23.2188H28.6875V24.7812H16.9688V23.2188Z" fill="#00AE9A"/>
<path d="M16.9688 27.125H20.875V28.6875H16.9688V27.125Z" fill="#00AE9A"/>
<path d="M22.4375 27.125H28.6875V28.6875H22.4375V27.125Z" fill="#00AE9A"/>
<path d="M25.8611 6.88612L18.8396 3.75516C18.7395 3.71051 18.6311 3.68744 18.5214 3.68744C18.4118 3.68744 18.3034 3.71051 18.2033 3.75516L11.1818 6.88612C11.0249 6.95609 10.8954 7.07581 10.8135 7.22677C10.7315 7.37772 10.7015 7.55149 10.7283 7.72118L11.3135 11.4371C11.3145 11.4431 11.3155 11.4493 11.3166 11.4554C11.9094 14.6757 13.715 17.546 16.3613 19.4746L18.0645 20.729C18.1981 20.8274 18.3595 20.8806 18.5254 20.8812C18.6912 20.8817 18.853 20.8294 18.9872 20.7318L20.6098 19.5522C23.2913 17.6245 25.1226 14.7338 25.7203 11.4858C25.7213 11.4798 25.7224 11.4737 25.7233 11.4677L26.3144 7.72147C26.3412 7.55176 26.3113 7.37794 26.2294 7.22693C26.1474 7.07592 26.018 6.95613 25.8611 6.88612ZM24.1814 11.2151C23.6533 14.0639 22.0444 16.5983 19.6911 18.2884L18.5312 19.1318L17.2883 18.2165C14.9661 16.5258 13.3799 14.0096 12.8559 11.1852L12.3652 8.07L18.5214 5.32411L24.6779 8.06932L24.1814 11.2151Z" fill="#00AE9A"/>
<path d="M15.9402 10.9531L14.8354 12.0579L17.1792 14.4017C17.3257 14.5481 17.5244 14.6304 17.7316 14.6304C17.9388 14.6304 18.1375 14.5481 18.284 14.4017L22.9715 9.71416L21.8667 8.60938L17.7316 12.7448L15.9402 10.9531Z" fill="#00AE9A"/>
<path d="M4.46875 3.6875H9.15625V5.25H4.46875V3.6875Z" fill="#00AE9A"/>
<path d="M4.46875 6.8125H7.59375V8.375H4.46875V6.8125Z" fill="#00AE9A"/>
<path d="M27.9062 3.6875H29.4688V5.25H27.9062V3.6875Z" fill="#00AE9A"/>
<path d="M31.0312 3.6875H32.5938V5.25H31.0312V3.6875Z" fill="#00AE9A"/>
</svg>
