<svg width="50" height="66" viewBox="0 0 50 66" fill="none" xmlns="http://www.w3.org/2000/svg">
<path d="M44.9532 16.8638C44.8168 23.8332 43.8426 30.2741 41.251 36.4017C40.9002 37.224 40.9392 37.1848 41.6602 37.6938C42.7903 38.4573 43.901 39.26 44.9532 40.1214C45.6742 40.7087 45.6547 41.0024 45.226 41.8246C45.1676 41.9421 45.0896 42.04 45.0312 42.1574C44.7194 42.8035 44.5635 42.686 45.3235 43.2146C46.5316 44.0368 47.7592 44.8395 48.9673 45.6617C49.1816 45.7988 49.4154 45.9358 49.6103 46.112C50.1559 46.621 50.1364 47.1496 49.4934 47.5607C48.8114 47.9914 48.0709 48.3634 47.3695 48.7549C46.9797 48.9703 46.59 49.2248 46.1614 49.401C45.6937 49.6163 45.4988 49.9295 45.5183 50.4777C45.5573 51.5936 45.5378 52.6899 45.5378 53.8058C45.5378 54.0603 45.5378 54.3344 45.4404 54.5693C45.2455 55.0783 44.7584 55.1762 44.1349 54.8042C42.9073 54.0799 41.6797 53.336 40.4521 52.6116C39.1855 51.8677 37.919 51.1433 36.6719 50.3798C35.7755 49.8512 35.7171 49.5771 36.1263 48.6179C36.1847 48.4613 36.2822 48.3242 36.3211 48.1676C36.4575 47.7761 36.5939 47.4041 36.7108 47.0125C36.1458 46.7776 35.6002 46.5035 35.0156 46.3273C34.8597 46.2882 34.5674 46.5231 34.3921 46.6993C32.5604 48.4221 30.5534 49.91 28.332 51.1042C27.4747 51.5544 26.5783 51.946 25.7015 52.3767C25.2338 52.6116 24.7857 52.5724 24.2985 52.3767C21.3367 51.1237 18.6477 49.4597 16.2705 47.267C16.1925 47.2083 16.1341 47.13 16.0561 47.0713C15.0234 46.1316 14.7506 46.112 13.523 46.8363C13.2112 47.0125 13.1918 47.1887 13.3476 47.4628C13.523 47.8152 13.6984 48.1676 13.8543 48.52C14.3414 49.5967 14.2829 49.8121 13.2892 50.3994C11.477 51.4761 9.64538 52.5529 7.83322 53.6296C7.19019 54.0016 6.54717 54.3931 5.90415 54.7651C5.02729 55.2545 4.52067 54.9609 4.50118 53.982C4.4817 52.8074 4.46221 51.6327 4.50118 50.4581C4.52067 49.9295 4.3453 49.6163 3.87765 49.3814C2.84491 48.8528 1.81217 48.2655 0.798924 47.6977C-0.214326 47.13 -0.233812 46.5427 0.720982 45.8771C2.00703 44.9961 3.31256 44.1347 4.59861 43.2733C5.28061 42.8035 5.28061 42.8035 4.91038 42.0987C4.83244 41.9616 4.7545 41.805 4.69604 41.668C4.38427 40.9828 4.38427 40.6891 4.96884 40.1997C6.04054 39.3187 7.17071 38.4965 8.32036 37.6938C9.04132 37.1848 9.09978 37.224 8.74904 36.4213C7.24865 32.9366 6.31334 29.2757 5.70929 25.5364C5.65083 25.184 5.61186 24.8316 5.59238 24.4597C5.55341 24.029 5.70929 23.6766 6.15746 23.5396C6.54717 23.4221 6.97585 23.6374 7.11225 24.1464C7.28762 24.8316 7.38505 25.556 7.50196 26.2608C8.1255 29.9021 9.09978 33.4456 10.6781 36.7933C12.9774 41.6876 16.212 45.7596 20.7911 48.6766C21.9408 49.401 23.1879 49.9687 24.3765 50.6343C24.8246 50.8888 25.1949 50.8301 25.6625 50.6343C29.9104 48.7549 33.4178 45.9162 36.1847 42.177C39.244 38.0462 41.0172 33.3477 42.1084 28.3751C42.6539 25.928 43.0437 23.4612 43.1216 20.9358C43.1801 18.9194 43.2385 16.9029 43.2775 14.8865C43.297 14.0055 43.258 13.9468 42.3811 13.8489C39.7311 13.5161 37.1785 12.8113 34.6649 11.9107C31.5082 10.7753 28.5269 9.26782 25.76 7.36884C25.0195 6.85984 25.0195 6.85984 24.3375 7.32969C19.5246 10.6382 14.205 12.7134 8.49573 13.7706C7.95013 13.8685 7.19019 13.8097 6.93688 14.123C6.6446 14.4949 6.74203 15.2389 6.74203 15.8066C6.76151 17.5098 6.83945 19.1934 6.87842 20.8771C6.87842 21.0728 6.87842 21.2686 6.83945 21.4644C6.74203 21.8559 6.48871 22.1104 6.099 22.1104C5.67032 22.1104 5.35855 21.8559 5.30009 21.4056C5.22215 20.8183 5.14421 20.231 5.12472 19.6633C5.10524 17.9405 5.10524 16.1981 5.10524 14.4753C5.10524 14.3775 5.10524 14.2796 5.12472 14.1817C5.33906 12.87 5.12472 12.5568 6.89791 12.3219C13.0554 11.48 18.6867 9.2874 23.7529 5.68521C23.9088 5.56774 24.0647 5.45028 24.2206 5.3524C24.9221 4.88255 25.0585 4.90212 25.7794 5.37197C27.0655 6.21379 28.332 7.05561 29.6376 7.81912C33.3204 9.9726 37.3149 11.2647 41.4848 12.0674C42.1473 12.2044 42.8293 12.2435 43.5113 12.3219C44.4466 12.4393 44.661 12.5959 44.7584 13.4965C44.8948 14.7494 44.9143 15.9828 44.9532 16.8638ZM9.56743 47.3062C9.68435 47.2475 9.70383 47.2475 9.7428 47.2279C11.0483 46.5035 12.3344 45.7596 13.6399 45.0353C13.9127 44.8786 13.7763 44.722 13.6594 44.5654C12.3149 42.8818 11.1068 41.1002 10.0935 39.2013C9.89869 38.8293 9.66486 38.751 9.31412 38.9859C8.47624 39.5341 7.61888 40.0627 6.80048 40.65C6.2354 41.0611 6.25489 41.1394 6.60563 41.7854C7.03431 42.6273 7.48248 43.4495 7.93065 44.2913C8.37881 45.1527 8.84647 46.0141 9.29464 46.8755C9.35309 47.0517 9.47001 47.1692 9.56743 47.3062ZM40.3157 38.7901C40.1988 38.9272 40.0234 39.0251 39.9455 39.1817C38.9517 41.0611 37.7436 42.8035 36.438 44.4479C36.2042 44.7416 36.1653 44.8786 36.555 45.0744C37.7631 45.7205 38.9322 46.3861 40.1013 47.0909C40.4716 47.3258 40.5885 47.1692 40.7444 46.8755C41.6407 45.1527 42.537 43.4103 43.4723 41.6876C43.6867 41.2764 43.7062 40.9632 43.297 40.6891C42.4396 40.1018 41.5628 39.5341 40.7054 38.9663C40.608 38.9272 40.4716 38.888 40.3157 38.7901ZM6.099 50.8497C6.099 51.2804 6.07952 51.6915 6.099 52.1222C6.11849 52.6703 6.19643 52.7095 6.6446 52.4354C7.91116 51.7111 9.15824 50.9475 10.4053 50.2036C10.5417 50.1253 10.6586 50.0078 10.7755 49.91C10.6197 49.8316 10.4638 49.7533 10.2884 49.675C10.191 49.6359 10.0935 49.6163 9.99612 49.6163C9.06081 49.6359 8.5347 49.166 8.14499 48.3242C7.57991 47.1104 6.9174 45.9554 6.31334 44.7807C6.11849 44.3892 5.92363 44.2326 5.51443 44.5262C4.6181 45.1723 3.70228 45.7596 2.76697 46.3665C2.41623 46.6014 2.41623 46.7776 2.80594 46.9734C3.29308 47.2279 3.78022 47.4824 4.26736 47.7565C6.25489 48.9311 6.11849 48.4808 6.099 50.8497ZM43.7451 52.6312C43.8036 52.4941 43.8815 52.3571 43.8815 52.2201C43.901 51.3978 43.9205 50.5952 43.8815 49.7729C43.8621 49.0681 44.1348 48.6179 44.7584 48.2851C45.5768 47.8739 46.3562 47.4041 47.1551 46.9734C47.5643 46.758 47.5059 46.5818 47.1746 46.3665C46.2783 45.7792 45.4014 45.1723 44.5051 44.585C43.979 44.2326 43.94 44.2326 43.6282 44.8199C43.0631 45.8771 42.4591 46.9342 41.972 48.0306C41.5433 49.0094 40.9782 49.6946 39.8091 49.6555C39.6921 49.6555 39.5557 49.7142 39.4388 49.7533C39.3609 49.7729 39.2635 49.8316 39.1855 49.8512C39.244 49.9295 39.2829 50.0274 39.3609 50.0666C40.7054 50.8692 42.0499 51.6523 43.3944 52.455C43.4918 52.5137 43.5893 52.5529 43.7451 52.6312ZM12.0031 48.2459C11.8083 48.0697 11.7303 47.9327 11.6329 47.9327C11.5355 47.9327 11.4381 48.0501 11.3406 48.1089C11.4186 48.1676 11.477 48.2459 11.555 48.2655C11.6524 48.2851 11.7693 48.2655 12.0031 48.2459ZM38.7179 48.1284C38.6009 48.0501 38.523 47.9327 38.4451 47.9522C38.3476 47.9718 38.2502 48.0501 38.1528 48.1089C38.2307 48.1676 38.2892 48.2851 38.3671 48.2851C38.4645 48.2851 38.5815 48.1872 38.7179 48.1284Z" fill="#00AE9A"/>
<path d="M38.7765 20.2506C38.7765 19.6632 38.7959 19.0759 38.7765 18.4886C38.7375 17.7838 38.6206 17.6468 37.9191 17.5489C35.347 17.177 32.8528 16.4526 30.4951 15.3563C28.8583 14.5928 27.28 13.6726 25.7211 12.7525C25.195 12.4393 24.8637 12.4001 24.3376 12.7525C20.6354 15.2388 16.5824 16.805 12.1981 17.5293C11.3992 17.6664 11.2238 17.823 11.2433 18.704C11.2628 20.4268 11.2823 22.1691 11.4577 23.8723C11.711 26.3586 12.1397 28.8253 12.9191 31.2333C13.718 33.7196 14.7312 36.108 16.2316 38.2615C16.3875 38.4769 16.5239 38.6922 16.6213 38.9467C16.7577 39.2991 16.6019 39.5928 16.3291 39.8081C16.0368 40.043 15.7055 40.0235 15.4327 39.7885C15.1989 39.5732 14.9846 39.3187 14.8092 39.0446C12.8411 36.0885 11.5551 32.8387 10.7367 29.3931C9.95728 26.1824 9.665 22.9131 9.60654 19.6241C9.58705 18.841 9.68448 18.0579 9.74294 17.2944C9.80139 16.3939 10.0352 16.2373 10.9121 16.0611C12.5294 15.7478 14.1662 15.4933 15.7445 15.0235C18.7258 14.1621 21.4733 12.7917 24.0064 10.971C24.9417 10.3054 25.0001 10.2858 25.9744 10.971C29.93 13.751 34.2753 15.4542 39.0687 16.0415C39.9651 16.1589 40.1404 16.3743 40.2379 17.2748C40.4327 18.8997 40.4327 20.5246 40.2379 22.1495C40.1794 22.5998 39.9261 22.8935 39.4974 22.9131C39.0687 22.9326 38.7765 22.639 38.718 22.1887C38.6985 21.9929 38.6985 21.7972 38.6985 21.6014C38.718 21.1511 38.757 20.7008 38.7765 20.231C38.7959 20.2506 38.7765 20.2506 38.7765 20.2506Z" fill="#00AE9A"/>
<path d="M18.9399 25.9475C19.6803 25.9475 20.2844 26.2608 20.7715 26.7698C21.3756 27.3767 21.9601 27.964 22.5642 28.5709C23.0513 29.0407 23.0513 29.0407 23.558 28.5513C25.3701 26.7306 27.1823 24.9099 28.9944 23.0893C29.2283 22.8543 29.4426 22.6194 29.6959 22.4236C30.7286 21.5818 32.1121 21.6014 33.0669 22.4628C34.0802 23.3829 34.275 24.7533 33.5346 25.9084C33.3982 26.1237 33.2228 26.3195 33.0474 26.5153C30.4169 29.1582 27.7863 31.8207 25.1363 34.4636C24.4153 35.1879 23.5385 35.6382 22.5057 35.3446C22.0186 35.2075 21.512 34.9726 21.1612 34.6398C19.7583 33.2889 18.3553 31.9185 17.0303 30.4894C15.7248 29.0799 16.1339 27.0047 17.8292 26.2608C18.1604 26.0846 18.5502 26.0454 18.9399 25.9475ZM19.1737 27.6703C18.5307 27.6312 18.2384 27.8074 18.024 28.1989C17.7707 28.6687 17.9461 29.0407 18.2384 29.3539C19.6024 30.7439 20.9664 32.1339 22.3693 33.4847C22.8565 33.9546 23.2267 33.9154 23.7528 33.4847C23.9282 33.3477 24.0841 33.1715 24.2399 33.0149C26.6951 30.5482 29.1503 28.0814 31.586 25.6343C31.8003 25.4189 31.9952 25.2232 32.1706 24.9882C32.4629 24.5575 32.4044 24.0877 32.0537 23.7549C31.6834 23.3829 31.2548 23.3242 30.8261 23.6178C30.5533 23.794 30.3389 24.029 30.1051 24.2639C28.0591 26.3195 26.0326 28.3555 23.9866 30.4111C23.1682 31.2138 22.9344 31.2138 22.155 30.4307C21.3951 29.6868 20.6546 28.9037 19.8752 28.1597C19.6219 27.9052 19.3101 27.7682 19.1737 27.6703Z" fill="#00AE9A"/>
<path d="M40.0235 25.5365C39.8091 26.6719 39.5753 28.0423 39.2635 29.4127C38.3672 33.289 36.8668 36.9108 34.4311 40.1019C32.0928 43.1755 29.1115 45.4268 25.5652 46.9147C25.2534 47.0517 24.7857 47.0517 24.4545 46.9147C21.8434 45.8575 19.5051 44.3305 17.4981 42.3336C17.4202 42.2553 17.3617 42.1966 17.3033 42.1183C16.9136 41.6289 16.8941 41.2373 17.2448 40.9045C17.5566 40.6109 17.9853 40.6304 18.4529 41.0416C19.1154 41.6093 19.739 42.2553 20.4599 42.7448C21.668 43.567 22.9346 44.2718 24.1817 45.0353C24.7273 45.3681 25.2144 45.3485 25.799 45.0549C30.4366 42.8426 33.6712 39.2796 35.8146 34.6594C37.0422 31.9773 37.8216 29.1582 38.2308 26.2412C38.2892 25.8497 38.3477 25.4582 38.4256 25.0862C38.5426 24.5772 38.8738 24.2835 39.283 24.3031C39.7117 24.3423 40.0235 24.7534 40.0235 25.5365Z" fill="#00AE9A"/>
</svg>
