<svg width="40" height="40" viewBox="0 0 40 40" fill="none" xmlns="http://www.w3.org/2000/svg">
<g clip-path="url(#clip0_40_1822)">
<path d="M39.9229 21.8477C39.5637 18.2353 37.9499 14.8297 35.3784 12.2582C33.1809 10.0607 30.4912 8.6486 27.661 8.0207V6.03567C28.8169 5.74808 29.6762 4.70174 29.6762 3.45805C29.6762 1.99334 28.4846 0.801758 27.0199 0.801758H21.3948C19.9301 0.801758 18.7385 1.99334 18.7385 3.45805C18.7385 4.70166 19.5977 5.74801 20.7536 6.03567V8.02625C17.9321 8.6568 15.2513 10.067 13.06 12.2583C12.5804 12.7378 12.1382 13.2409 11.7335 13.7637C11.7139 13.7622 11.6942 13.7607 11.6742 13.7607H6.10689C5.67548 13.7607 5.32563 14.1105 5.32563 14.542C5.32563 14.9735 5.67548 15.3232 6.10689 15.3232H10.6704C10.0976 16.2822 9.6357 17.2894 9.28413 18.3261H0.781262C0.349849 18.3261 0 18.6759 0 19.1074C0 19.5388 0.349849 19.8886 0.781262 19.8886H8.84264C8.61748 20.877 8.48826 21.8829 8.4549 22.8916H5.00008C4.56867 22.8916 4.21882 23.2413 4.21882 23.6728C4.21882 24.1043 4.56867 24.4541 5.00008 24.4541H8.47982C8.54576 25.4653 8.70834 26.4713 8.96764 27.457H3.90631C3.4749 27.457 3.12505 27.8068 3.12505 28.2383C3.12505 28.6698 3.4749 29.0195 3.90631 29.0195H9.46624C10.2327 31.047 11.4304 32.9473 13.06 34.5768C15.6339 37.1508 19.043 38.765 22.6592 39.1223C23.1753 39.1732 23.6918 39.1984 24.2076 39.1984C27.2562 39.1984 30.2661 38.3162 32.82 36.653C33.1816 36.4175 33.2839 35.9336 33.0484 35.572C32.8129 35.2104 32.3289 35.1082 31.9674 35.3436C26.3769 38.9841 18.8898 38.1969 14.1648 33.472C8.62084 27.928 8.62084 18.9073 14.1648 13.3632C19.7087 7.81929 28.7294 7.81929 34.2735 13.3632C38.9922 18.082 39.7837 25.5627 36.1553 31.1504C35.9202 31.5123 36.0231 31.9962 36.3849 32.2312C36.747 32.4662 37.2307 32.3633 37.4657 32.0014C39.4043 29.0158 40.277 25.4099 39.9229 21.8477ZM20.301 3.45813C20.301 2.85499 20.7917 2.36436 21.3948 2.36436H27.0199C27.623 2.36436 28.1136 2.85499 28.1136 3.45813C28.1136 4.06126 27.623 4.55189 27.0199 4.55189H26.8797H21.5349H21.3948C20.7917 4.55189 20.301 4.06118 20.301 3.45813ZM22.3161 7.75765V6.11442H26.0985V7.75483C24.8425 7.60546 23.5719 7.60639 22.3161 7.75765Z" fill="#00AE9A"/>
<path d="M34.8262 33.2428C34.6199 33.2428 34.4191 33.3264 34.2739 33.4717C34.1278 33.617 34.0449 33.8186 34.0449 34.024C34.0449 34.2295 34.1278 34.4311 34.2739 34.5764C34.4191 34.7225 34.62 34.8053 34.8262 34.8053C35.0316 34.8053 35.2324 34.7225 35.3785 34.5764C35.5238 34.4311 35.6074 34.2295 35.6074 34.024C35.6074 33.8186 35.5239 33.617 35.3785 33.4717C35.2324 33.3264 35.0316 33.2428 34.8262 33.2428Z" fill="#00AE9A"/>
<path d="M24.2193 11.2979C17.5365 11.2979 12.0996 16.7347 12.0996 23.4175C12.0996 30.1003 17.5365 35.5371 24.2193 35.5371C30.902 35.5371 36.3389 30.1003 36.3389 23.4175C36.3389 16.7347 30.902 11.2979 24.2193 11.2979ZM24.2193 33.9746C18.398 33.9746 13.6621 29.2387 13.6621 23.4175C13.6621 17.5963 18.398 12.8604 24.2193 12.8604C30.0405 12.8604 34.7764 17.5963 34.7764 23.4175C34.7764 29.2387 30.0405 33.9746 24.2193 33.9746Z" fill="#00AE9A"/>
<path d="M29.1609 17.3705L25.2913 21.2401C24.9677 21.0801 24.6038 20.9897 24.219 20.9897C23.8341 20.9897 23.4702 21.0801 23.1466 21.2401L21.4148 19.5082C21.1096 19.2031 20.6151 19.2031 20.3099 19.5082C20.0048 19.8133 20.0048 20.308 20.3099 20.6131L22.0417 22.3449C21.8816 22.6685 21.7913 23.0325 21.7913 23.4173C21.7913 24.7559 22.8803 25.845 24.219 25.845C25.5577 25.845 26.6467 24.7559 26.6467 23.4173C26.6467 23.0325 26.5563 22.6685 26.3963 22.3449L30.1523 18.5889L30.2658 18.4754C30.5709 18.1703 30.5709 17.6756 30.2658 17.3705C29.9607 17.0655 29.4662 17.0655 29.1609 17.3705ZM24.219 24.2825C23.7419 24.2825 23.3538 23.8944 23.3538 23.4174C23.3538 22.9403 23.7419 22.5522 24.219 22.5522C24.696 22.5522 25.0842 22.9403 25.0842 23.4174C25.0842 23.8944 24.696 24.2825 24.219 24.2825Z" fill="#00AE9A"/>
<path d="M32.5725 22.6456H31.8486C31.4172 22.6456 31.0674 22.9954 31.0674 23.4269C31.0674 23.8584 31.4172 24.2081 31.8486 24.2081H32.5725C33.0039 24.2081 33.3537 23.8584 33.3537 23.4269C33.3537 22.9954 33.0039 22.6456 32.5725 22.6456Z" fill="#00AE9A"/>
<path d="M16.59 22.6266H15.8662C15.4348 22.6266 15.085 22.9764 15.085 23.4078C15.085 23.8393 15.4348 24.1891 15.8662 24.1891H16.59C17.0214 24.1891 17.3712 23.8393 17.3712 23.4078C17.3712 22.9764 17.0214 22.6266 16.59 22.6266Z" fill="#00AE9A"/>
<path d="M24.2285 16.5693C24.6599 16.5693 25.0098 16.2196 25.0098 15.7881V15.0643C25.0098 14.6328 24.6599 14.2831 24.2285 14.2831C23.7971 14.2831 23.4473 14.6328 23.4473 15.0643V15.7881C23.4473 16.2196 23.7971 16.5693 24.2285 16.5693Z" fill="#00AE9A"/>
<path d="M24.2095 30.2656C23.7781 30.2656 23.4282 30.6154 23.4282 31.0469V31.7706C23.4282 32.2021 23.7781 32.5519 24.2095 32.5519C24.6409 32.5519 24.9907 32.2021 24.9907 31.7706V31.0469C24.9907 30.6154 24.6409 30.2656 24.2095 30.2656Z" fill="#00AE9A"/>
<path d="M0.78125 27.4568C0.575781 27.4568 0.374219 27.5404 0.228906 27.6857C0.0835938 27.831 0 28.0326 0 28.238C0 28.4443 0.0835156 28.6451 0.228906 28.7904C0.374297 28.9357 0.575781 29.0193 0.78125 29.0193C0.986719 29.0193 1.18828 28.9357 1.33352 28.7904C1.47883 28.6451 1.5625 28.4435 1.5625 28.238C1.5625 28.0326 1.47891 27.831 1.33352 27.6857C1.18828 27.5404 0.986719 27.4568 0.78125 27.4568Z" fill="#00AE9A"/>
</g>
<defs>
<clipPath id="clip0_40_1822">
<rect width="40" height="40" fill="white"/>
</clipPath>
</defs>
</svg>
