<svg width="40" height="40" viewBox="0 0 40 40" fill="none" xmlns="http://www.w3.org/2000/svg">
<g clip-path="url(#clip0_40_1887)">
<path d="M26.7148 25.653C25.7671 25.653 24.9961 24.9857 24.9961 24.1654C24.9961 23.3451 25.7671 22.6778 26.7148 22.6778C27.6626 22.6778 28.4336 23.3451 28.4336 24.1654C28.4336 24.5968 28.7834 24.9467 29.2148 24.9467C29.6462 24.9467 29.9961 24.5968 29.9961 24.1654C29.9961 22.7338 28.9294 21.53 27.4961 21.2033V20.797C27.4961 20.3656 27.1462 20.0157 26.7148 20.0157C26.2834 20.0157 25.9336 20.3656 25.9336 20.797V21.2033C24.5003 21.53 23.4336 22.7338 23.4336 24.1654C23.4336 25.8472 24.9055 27.2155 26.7148 27.2155C27.6626 27.2155 28.4336 27.8828 28.4336 28.7032C28.4336 29.5235 27.6626 30.1908 26.7148 30.1908C25.7671 30.1908 24.9961 29.5235 24.9961 28.7032C24.9961 28.2717 24.6462 27.9219 24.2148 27.9219C23.7834 27.9219 23.4336 28.2717 23.4336 28.7032C23.4336 30.1348 24.5003 31.3385 25.9336 31.6653V32.0028C25.9336 32.4342 26.2834 32.784 26.7148 32.784C27.1462 32.784 27.4961 32.4342 27.4961 32.0028V31.6653C28.9294 31.3385 29.9961 30.1348 29.9961 28.7032C29.9961 27.0213 28.5241 25.653 26.7148 25.653Z" fill="#252D34"/>
<path d="M35.2721 21.0059C34.2515 19.4157 32.8137 18.1432 31.1141 17.3261C30.7251 17.1391 30.2583 17.3029 30.0715 17.6918C29.8845 18.0807 30.0482 18.5474 30.4371 18.7343C33.3989 20.1581 35.3126 23.2002 35.3126 26.4844C35.3126 27.8897 34.9662 29.2834 34.3109 30.515C34.1083 30.8958 34.2527 31.3689 34.6337 31.5716C34.7505 31.6338 34.8762 31.6633 34.9999 31.6633C35.2794 31.6633 35.5498 31.5128 35.6903 31.2489C36.4654 29.7923 36.8751 28.1447 36.8751 26.4844C36.8751 24.5344 36.3208 22.64 35.2721 21.0059Z" fill="#252D34"/>
<path d="M27.9432 16.3283L27.8906 16.3282C27.4592 16.3282 27.1094 16.678 27.1094 17.1095C27.1094 17.541 27.4592 17.8907 27.8906 17.8907L27.9359 17.8908C27.9371 17.8908 27.9383 17.8908 27.9396 17.8908C28.3694 17.8908 28.7188 17.5435 28.7208 17.1132C28.7227 16.6818 28.3746 16.3304 27.9432 16.3283Z" fill="#252D34"/>
<path d="M23.0004 34.2345C20.0387 32.8107 18.125 29.7686 18.125 26.4844C18.125 25.0791 18.4714 23.6854 19.1266 22.4539C19.3293 22.073 19.1848 21.5999 18.8039 21.3972C18.4231 21.1946 17.9498 21.339 17.7473 21.72C16.9722 23.1766 16.5625 24.8241 16.5625 26.4844C16.5625 28.4344 17.1168 30.3288 18.1655 31.9629C19.186 33.5532 20.6238 34.8257 22.3234 35.6428C22.4326 35.6953 22.5479 35.72 22.6614 35.72C22.9523 35.72 23.2315 35.5568 23.3661 35.2771C23.5529 34.8882 23.3893 34.4214 23.0004 34.2345Z" fill="#252D34"/>
<path d="M25.5468 35.078L25.5016 35.0779C25.0681 35.0771 24.7188 35.4239 24.7168 35.8555C24.7148 36.287 25.0631 36.6384 25.4945 36.6404L25.5468 36.6406C25.9782 36.6406 26.328 36.2907 26.328 35.8593C26.328 35.4279 25.9782 35.078 25.5468 35.078Z" fill="#252D34"/>
<path d="M30.2663 13.685C30.1712 13.4584 30.0547 13.2449 29.9192 13.0469H31.9531C33.9346 13.0469 35.5468 11.4347 35.5468 9.45311C35.5468 7.47155 33.9346 5.85936 31.9531 5.85936H25.6968C26.0946 5.28108 26.3281 4.58148 26.3281 3.82812C26.3281 1.84656 24.7159 0.234375 22.7343 0.234375H3.59374C1.61218 0.234375 0 1.84656 0 3.82812C0 5.80968 1.61218 7.42186 3.59374 7.42186H9.84998C9.45225 8.00014 9.21873 8.69975 9.21873 9.45311C9.21873 10.2065 9.45217 10.9061 9.84998 11.4844H7.81249C5.83093 11.4844 4.21874 13.0965 4.21874 15.0781C4.21874 16.2161 4.75108 17.2317 5.57929 17.8906C4.75108 18.5495 4.21874 19.565 4.21874 20.7031C4.21874 21.8411 4.75108 22.8567 5.57929 23.5156C4.75108 24.1745 4.21874 25.19 4.21874 26.3281C4.21874 27.4661 4.75108 28.4817 5.57929 29.1406C4.75108 29.7995 4.21874 30.815 4.21874 31.9531C4.21874 33.9346 5.83093 35.5468 7.81249 35.5468H17.0195C19.445 38.1411 22.8954 39.7656 26.7188 39.7656C34.042 39.7656 40 33.8077 40 26.4844C40 20.3893 35.8727 15.2408 30.2663 13.685ZM31.9531 7.42186C33.0731 7.42186 33.9843 8.33311 33.9843 9.45311C33.9843 10.5731 33.0731 11.4844 31.9531 11.4844H26.9531H12.8125C11.6924 11.4844 10.7812 10.5731 10.7812 9.45311C10.7812 8.33311 11.6924 7.42186 12.8125 7.42186H31.9531ZM3.59374 5.85936C2.47367 5.85936 1.5625 4.94812 1.5625 3.82812C1.5625 2.70812 2.47367 1.79687 3.59374 1.79687H22.7343C23.8544 1.79687 24.7656 2.70812 24.7656 3.82812C24.7656 4.94812 23.8544 5.85936 22.7343 5.85936H3.59374ZM7.81249 13.0469H26.9531C27.2678 13.0469 27.5691 13.12 27.8394 13.2509C27.4699 13.2199 27.0963 13.2032 26.7188 13.2032C23.0512 13.2032 19.7262 14.6976 17.3204 17.1093H7.81249C6.69249 17.1093 5.78124 16.1981 5.78124 15.0781C5.78124 13.9581 6.69249 13.0469 7.81249 13.0469ZM7.81249 18.6718H15.9855C15.0986 19.8869 14.4129 21.2574 13.9775 22.7343H7.81249C6.69241 22.7343 5.78124 21.8232 5.78124 20.7031C5.78124 19.5831 6.69241 18.6718 7.81249 18.6718ZM7.81249 24.2968H13.6187C13.5002 25.0088 13.4376 25.7393 13.4376 26.4844C13.4376 27.1208 13.4836 27.7466 13.5705 28.3593H7.81249C6.69241 28.3593 5.78124 27.4482 5.78124 26.3281C5.78124 25.208 6.69241 24.2968 7.81249 24.2968ZM7.81249 33.9843C6.69241 33.9843 5.78124 33.0731 5.78124 31.9531C5.78124 30.833 6.69241 29.9218 7.81249 29.9218H13.8895C14.2837 31.3916 14.9241 32.7613 15.764 33.9843H7.81249ZM26.7188 38.2031C20.2571 38.2031 15 32.9461 15 26.4844C15 20.0227 20.2571 14.7657 26.7188 14.7657C33.1805 14.7657 38.4375 20.0227 38.4375 26.4844C38.4375 32.9461 33.1805 38.2031 26.7188 38.2031Z" fill="#252D34"/>
</g>
<defs>
<clipPath id="clip0_40_1887">
<rect width="40" height="40" fill="white"/>
</clipPath>
</defs>
</svg>
