<svg width="40" height="40" viewBox="0 0 40 40" fill="none" xmlns="http://www.w3.org/2000/svg">
<g clip-path="url(#clip0_40_1812)">
<path d="M37.3438 8.31744H35.7797L35.7812 5.52142C35.7822 3.64429 34.256 2.11627 32.3785 2.11536L20.5084 2.10864C20.5078 2.10864 20.5075 2.10864 20.5069 2.10864C19.8312 2.10864 19.1959 2.3717 18.718 2.84961L0.997009 20.5706C0.354004 21.2136 0 22.0684 0 22.9778C0 23.8872 0.354004 24.742 0.997009 25.385L12.4973 36.8853C13.161 37.549 14.0329 37.8807 14.9045 37.8807C15.7764 37.8807 16.6483 37.549 17.312 36.8853L28.4692 25.728C28.7744 25.4229 28.7744 24.9282 28.4692 24.6233C28.1641 24.3181 27.6694 24.3181 27.3642 24.6233L16.207 35.7805C15.4889 36.4986 14.3204 36.4986 13.6023 35.7805L2.10205 24.2803C1.75415 23.9324 1.5625 23.4697 1.5625 22.9778C1.5625 22.4858 1.75415 22.0232 2.10205 21.6753L19.8227 3.95465C20.0055 3.77185 20.2484 3.67114 20.5069 3.67114H20.5075L32.3776 3.67786C33.3932 3.67816 34.2194 4.50519 34.2188 5.52081L34.2151 12.0674H30.6961C30.3931 12.0674 30.1187 11.9435 29.9203 11.744C30.2472 11.6039 30.5536 11.4016 30.82 11.1351C31.9427 10.0121 31.9427 8.1853 30.82 7.06256C29.697 5.93951 27.8702 5.93951 26.7471 7.06256C25.6244 8.1853 25.6244 10.0121 26.7471 11.1351C27.1634 11.5514 27.6767 11.8129 28.2147 11.9207C28.5971 12.9189 29.5648 13.6299 30.6961 13.6299H34.2142L34.212 17.3751C34.212 17.6335 34.1113 17.8762 33.9285 18.0587L31.7838 20.2037C31.4786 20.5089 31.4786 21.0036 31.7838 21.3088C32.0886 21.6136 32.5833 21.6136 32.8885 21.3088L35.0336 19.1637C35.5109 18.6861 35.7742 18.0513 35.7745 17.376L35.7767 13.6299H37.3438C38.8083 13.6299 40 12.4385 40 10.9737C40 9.50916 38.8083 8.31744 37.3438 8.31744ZM27.8522 8.1673C28.1091 7.91034 28.4464 7.78217 28.7839 7.78217C29.1211 7.78217 29.4583 7.91064 29.7153 8.1673C29.7964 8.24878 29.8636 8.33881 29.9191 8.43372C29.0616 8.69647 28.3878 9.38281 28.1415 10.2477C28.038 10.19 27.9401 10.1183 27.8522 10.0304C27.3386 9.51648 27.3386 8.68091 27.8522 8.1673ZM37.3438 12.0674H35.7776L35.7788 9.87994H37.3438C37.9468 9.87994 38.4375 10.3707 38.4375 10.9737C38.4375 11.5767 37.9468 12.0674 37.3438 12.0674Z" fill="#00AE9A"/>
<path d="M12.6103 21.82C12.7065 22.1658 13.0205 22.3919 13.3623 22.3919C13.4319 22.3919 13.5024 22.3827 13.5722 22.3632L21.5922 20.1308C22.0079 20.0152 22.2511 19.5843 22.1355 19.1686C22.0198 18.7533 21.5892 18.5101 21.1732 18.6257L13.1532 20.8578C12.7379 20.9737 12.4947 21.4043 12.6103 21.82Z" fill="#00AE9A"/>
<path d="M16.1406 22.8508C15.7054 23.286 15.4658 23.8643 15.4658 24.4799C15.4658 25.0951 15.7054 25.6734 16.1406 26.1086C16.5898 26.5575 17.1794 26.7821 17.7693 26.7821C18.3592 26.7821 18.9491 26.5575 19.3983 26.1086C20.2964 25.2105 20.2964 23.749 19.3983 22.8508C18.5002 21.9527 17.0387 21.9527 16.1406 22.8508ZM18.2933 25.0036C18.0043 25.2926 17.5343 25.2926 17.2453 25.0036C17.1052 24.8638 17.0283 24.6776 17.0283 24.4796C17.0283 24.2818 17.1055 24.0957 17.2453 23.9556C17.39 23.8112 17.5798 23.7389 17.7693 23.7389C17.9591 23.7389 18.1489 23.8112 18.2933 23.9556C18.5823 24.2446 18.5823 24.7149 18.2933 25.0036Z" fill="#00AE9A"/>
<path d="M19.7854 18.1993C20.6835 17.3009 20.6835 15.8397 19.7854 14.9416C19.3502 14.5064 18.7716 14.2668 18.1563 14.2668C17.5411 14.2668 16.9625 14.5064 16.5276 14.9416C15.6295 15.8397 15.6295 17.3009 16.5276 18.1993C16.9768 18.6483 17.5664 18.8729 18.1563 18.8729C18.7462 18.8729 19.3361 18.6483 19.7854 18.1993ZM17.6323 16.0463C17.7724 15.9062 17.9586 15.8293 18.1563 15.8293C18.3544 15.8293 18.5405 15.9062 18.6803 16.0463C18.9693 16.3353 18.9693 16.8053 18.6803 17.0943C18.3916 17.3833 17.9213 17.3833 17.6323 17.0943C17.3436 16.8053 17.3436 16.3353 17.6323 16.0463Z" fill="#00AE9A"/>
<path d="M7.77057 20.2055C7.46539 19.9003 6.9707 19.9003 6.66553 20.2055L4.44568 22.4254C4.29919 22.5718 4.2168 22.7705 4.2168 22.9777C4.2168 23.1849 4.29919 23.3836 4.44568 23.5301L14.3526 33.437C14.5049 33.5893 14.7051 33.6656 14.905 33.6656C15.1049 33.6656 15.3047 33.5893 15.4573 33.437L30.2693 18.6247C30.5745 18.3195 30.5745 17.8248 30.2693 17.5197L20.3627 7.61304C20.2162 7.46655 20.0176 7.38416 19.8104 7.38416C19.6031 7.38416 19.4045 7.46655 19.258 7.61304L11.0851 15.7859C10.7799 16.0911 10.7799 16.5858 11.0851 16.891C11.39 17.1959 11.8846 17.1959 12.1898 16.891L19.8104 9.27045L28.6122 18.0723L14.905 31.7796L6.10309 22.9777L7.77057 21.3102C8.07544 21.0051 8.07574 20.5107 7.77057 20.2055Z" fill="#00AE9A"/>
<path d="M30.1265 22.1847C29.9208 22.1847 29.7194 22.2683 29.5741 22.4136C29.4288 22.5588 29.3452 22.7606 29.3452 22.9659C29.3452 23.1713 29.4288 23.373 29.5741 23.5183C29.7194 23.6636 29.9208 23.7472 30.1265 23.7472C30.3318 23.7472 30.5333 23.6636 30.6788 23.5183C30.8241 23.373 30.9077 23.1713 30.9077 22.9659C30.9077 22.7606 30.8241 22.5588 30.6788 22.4136C30.5333 22.2683 30.3318 22.1847 30.1265 22.1847Z" fill="#00AE9A"/>
<path d="M9.97931 19.1002C10.1255 18.955 10.2085 18.7542 10.2085 18.5479C10.2085 18.3425 10.1255 18.1417 9.97931 17.9955C9.83405 17.8502 9.63324 17.7666 9.42725 17.7666C9.22156 17.7666 9.02014 17.8502 8.87488 17.9955C8.72931 18.1407 8.646 18.3425 8.646 18.5479C8.646 18.7542 8.72931 18.955 8.87488 19.1002C9.02075 19.2464 9.22156 19.3291 9.42725 19.3291C9.63324 19.3291 9.83405 19.2464 9.97931 19.1002Z" fill="#00AE9A"/>
</g>
<defs>
<clipPath id="clip0_40_1812">
<rect width="40" height="40" fill="white" transform="translate(0 -0.000732422)"/>
</clipPath>
</defs>
</svg>
