<svg width="80" height="10" viewBox="0 0 80 10" fill="none" xmlns="http://www.w3.org/2000/svg">
<path d="M78.8827 0C75.0838 0 73.1844 2.23464 71.5084 4.24581C69.9441 6.14525 68.6033 7.70949 65.9218 7.70949C63.2402 7.70949 61.8994 6.14525 60.3352 4.24581C58.6592 2.23464 56.7598 0 52.9609 0C49.162 0 47.2626 2.23464 45.5866 4.24581C44.0223 6.14525 42.6816 7.70949 40 7.70949C37.3184 7.70949 35.9777 6.14525 34.4134 4.24581C32.7374 2.23464 30.838 0 27.0391 0C23.2402 0 21.3408 2.23464 19.6648 4.24581C18.1006 6.14525 16.7598 7.70949 14.0782 7.70949C11.3966 7.70949 10.0559 6.14525 8.49162 4.24581C6.81564 2.23464 4.9162 0 1.11732 0C0.446927 0 0 0.446926 0 1.11732C0 1.78771 0.446927 2.23464 1.11732 2.23464C3.79888 2.23464 5.13966 3.79888 6.70391 5.69832C8.37989 7.7095 10.2793 9.94413 14.0782 9.94413C17.8771 9.94413 19.7765 7.7095 21.4525 5.69832C23.0168 3.79888 24.3575 2.23464 27.0391 2.23464C29.7207 2.23464 31.0615 3.79888 32.6257 5.69832C34.3017 7.7095 36.2011 9.94413 40 9.94413C43.7989 9.94413 45.6983 7.7095 47.3743 5.69832C48.9385 3.79888 50.2793 2.23464 52.9609 2.23464C55.6425 2.23464 56.9832 3.79888 58.5475 5.69832C60.2235 7.7095 62.1229 9.94413 65.9218 9.94413C69.7207 9.94413 71.6201 7.7095 73.2961 5.69832C74.8603 3.79888 76.2011 2.23464 78.8827 2.23464C79.5531 2.23464 80 1.78771 80 1.11732C80 0.446926 79.5531 0 78.8827 0Z" fill="#00AE9A"/>
</svg>
